<?xml version="1.0" standalone="no"?><!DOCTYPE svg PUBLIC "-//W3C//DTD SVG 1.1//EN" "http://www.w3.org/Graphics/SVG/1.1/DTD/svg11.dtd"><svg t="1639891966613" class="icon" viewBox="0 0 1024 1024" version="1.1" xmlns="http://www.w3.org/2000/svg" p-id="4315" xmlns:xlink="http://www.w3.org/1999/xlink" width="200" height="200"><defs><style type="text/css"></style></defs><path d="M828.163241 196.040908l-0.226151 0C747.136833 115.146507 635.360074 65.11502 511.867482 65.11502c-122.740462 0-234.780211 50.031487-315.318502 130.925888l-0.488117 0c-81.026408 80.538291-130.813325 192.446034-130.813325 316.426743 0 122.872468 49.78794 234.649228 130.813325 315.187519 81.026408 81.513502 192.57804 131.301442 315.806619 131.301442 123.492592 0 235.269351-49.786916 315.807642-131.301442l0.488117 0c80.801281-80.538291 130.813325-192.316074 130.813325-315.187519C958.976566 388.486942 909.188626 276.579199 828.163241 196.040908M779.352559 779.331581 779.352559 779.331581l0 0.26299c-68.335365 68.335365-162.766061 110.538559-267.485077 110.538559-104.455004 0-199.148689-42.202171-266.995937-110.538559l-0.488117-0.26299c-68.335365-68.335365-110.312408-162.898067-110.312408-266.864954 0-104.943121 41.977044-199.767789 110.312408-267.972171l0.488117-0.243547c67.847248-68.222801 162.540933-110.687962 266.995937-110.687962 104.719017 0 199.148689 42.466184 267.485077 110.687962l0 0.243547c68.823482 68.204381 110.800525 163.02905 110.800525 267.972171C890.153084 616.434537 848.175017 710.996217 779.352559 779.331581" p-id="4316" fill="#BF73F2" data-spm-anchor-id="a313x.7781069.0.i7" class="selected"></path><path d="M741.278405 530.395976c-2.177596 0-4.618181-0.225127-6.832615-0.488117l-6.082532-0.976234-430.776094-66.007343c-0.713244-0.243547-1.464351-0.243547-1.952468-0.243547-25.118074-4.749164-41.488927-27.690666-37.809117-52.227502 0.225127-3.284813 1.201361-6.477528 2.665713-10.250458 0.488117-0.731664 0.976234-1.707898 1.464351-2.684132 0.976234-2.553149 1.952468-4.28049 3.416819-6.100952 40.024575-68.955488 127.171378-112.62201 225.995127-113.598244 0.976234 0 33.19196-3.547803 45.393863-34.542724 0-0.243547 11.489682-20.98801 24.405853-20.98801 5.858428 0 12.69002 6.232958 13.666254 11.713786 0.264013 1.464351 7.096628 47.458895 34.656311 62.966077 90.074482 30.506804 158.409846 97.997941 176.206164 174.987407 0.48914 1.219781 0.976234 4.03592 1.239224 6.214539l0 1.238201 0.226151 0c0.26299 4.26207 0.26299 8.035-0.48914 12.07092C783.256472 513.443885 763.995803 530.395976 741.278405 530.395976" p-id="4317" fill="#E65270" data-spm-anchor-id="a313x.7781069.0.i8" class=""></path><path d="M476.010833 804.224528c-11.489682 0-20.500916-6.570649-21.252023-7.320733l-17.797341-14.381545c-106.408495-30.262234-175.983083-119.473045-162.315806-208.42189l12.465916-83.95511c1.201361-6.833639 7.058766-10.738575 13.892405-10.250458l52.227502 7.677866c6.833639 0.976234 11.226692 7.078209 10.250458 13.798261l-7.546883 60.525492c0 0-1.464351 25.118074 5.594415 49.89948 1.238201-14.042831 3.415796-31.238468 6.608511-50.275034l9.011234-59.436694c0.750083-3.284813 2.440585-6.214539 5.14416-7.67889 2.440585-2.308579 5.857405-3.059686 8.786107-2.571568l336.044546 53.204759c6.607488 0.976234 11.000542 7.320733 10.024308 13.797237l-12.69002 82.490759c-13.44215 88.705298-102.014418 151.934365-210.149231 151.934365l-6.345522 0-20.012799 8.785084C484.045833 803.512307 480.140896 804.224528 476.010833 804.224528" p-id="4318" fill="#FAA100" data-spm-anchor-id="a313x.7781069.0.i6" class=""></path></svg>