<svg t="1649673392258" class="icon" viewBox="0 0 1024 1024" version="1.1" xmlns="http://www.w3.org/2000/svg" p-id="2533" width="200" height="200"><path d="M512 0l443.402449 256v512L512 1024 68.597551 768v-512z" fill="#FFFEFE" p-id="2534"></path><path d="M512 0l443.402449 256v512L512 1024 68.597551 768v-512L512 0z m0 12.068571L79.036082 262.029061v499.931429L512 1011.92098l432.953469-249.96049V262.029061L512 12.068571z" fill="#2F54EB" p-id="2535"></path><path d="M513.462857 45.212735V94.040816L150.047347 303.020408v417.959184l-42.579592 31.346939V278.642939z" fill="#B5CBF9" p-id="2536"></path><path d="M512 94.040816l361.963102 208.979592v417.959184L512 929.959184 150.036898 720.979592V303.020408L512 94.040816z m0 12.068572L160.475429 309.049469v405.890613L512 917.880163l351.514122-202.940081V309.049469L512 106.109388z" fill="#C6D6FF" p-id="2537"></path><path d="M558.539755 461.71951c-3.845224 1.003102-7.909878 0.731429-11.598367-0.773224l-0.783674-0.177633c-7.899429-4.033306-11.274449-13.813551-8.202449-25.046204l0.658286-1.703184c4.952816-9.738449 7.053061-20.344163 6.770939-33.99053-0.167184-21.817469-8.777143-42.527347-24.764082-58.57698a82.546939 82.546939 0 0 0-58.179918-25.129796 81.502041 81.502041 0 0 0-57.814204 24.304327c-15.840653 15.798857-24.220735 36.780408-24.419266 58.702367 0.10449 24.47151 10.187755 46.393469 29.173551 63.550694 3.594449 3.657143 5.517061 8.077061 5.726041 13.040326 0.114939 4.608-1.724082 9.257796-5.308081 12.591021-2.998857 3.082449-8.871184 6.24849-13.437388 6.24849-2.633143-0.052245-7.188898 0.041796-11.316245-4.252735-24.941714-20.960653-39.915102-54.157061-39.758367-89.108898a118.940735 118.940735 0 0 1 34.178612-84.323265c22.005551-22.360816 51.691102-34.586122 83.069388-34.554776 65.118041 0.146286 118.177959 53.895837 118.282449 119.463184a129.64049 129.64049 0 0 1-10.208653 50.729796l-0.856817 1.358367-1.201632 1.076245a19.121633 19.121633 0 0 1-10.010123 6.582857z m107.896163 73.247347l1.671837 126.808816-0.877714 0.867266c-0.282122 0.282122-0.574694 0.574694-0.574694 0.867265v0.574694l-0.282123 0.574694-20.845714 40.155428c1.149388 3.260082 2.309224 6.718694 2.309225 9.696653 0 13.238857-11.776 24.941714-24.941715 24.941715H457.811592c-13.228408 0-24.941714-11.776-24.941714-24.941715 0-3.845224 0.856816-6.520163 1.724081-8.829387l-59.527837-74.219102c-9.905633-13.165714-21.336816-39.277714-2.612244-55.118368 6.164898-4.409469 12.298449-6.436571 20.845714-6.436571h0.574694c10.271347 1.724082 20.553143 8.171102 30.239347 19.017143l0.574694 0.585143 9.696653 10.553469V432.619102c0-15.76751 11.138612-40.719673 40.730122-40.719673 14.315102 0 23.437061 6.144 28.421225 11.128163 12.59102 12.59102 12.59102 29.309388 12.59102 29.884081v54.251103c4.409469-2.089796 9.696653-3.249633 16.122775-3.249633 9.613061 0 17.585633 3.249633 24.011756 9.696653 0.867265 0.91951 1.734531 1.797224 2.309224 2.957061 7.606857-9.613061 17.010939-13.740408 28.149551-12.59102 16.425796 1.462857 24.304327 14.043429 28.713796 24.596898 4.921469-2.96751 10.490776-5.569306 19.027592-5.569306 26.112 0 31.973878 27.85698 31.973877 31.984326v-0.010449z" fill="#2F54EB" p-id="2538"></path></svg>