<svg t="1649673491554" class="icon" viewBox="0 0 1024 1024" version="1.1" xmlns="http://www.w3.org/2000/svg" p-id="2738" width="200" height="200"><path d="M68.266667 256L512 0 955.733333 256v512L512 1024 68.266667 768v-512z m813.50656 475.42272V292.590933L512 73.140907 142.226773 292.590933V731.409067L512 950.859093 881.773227 731.409067z m-328.17152-179.131733v247.712426c0 17.667413-14.486187 32.003413-32.3584 32.003414a31.90784 31.90784 0 0 1-23.074134-9.188694 31.197867 31.197867 0 0 1-9.284266-22.81472V552.30464L262.417067 423.089493a31.894187 31.894187 0 0 1-15.742294-31.839573 32.11264 32.11264 0 0 1 23.620267-26.66496 32.03072 32.03072 0 0 1 24.480427 3.467947l226.481493 128 224.570027-128a32.03072 32.03072 0 0 1 24.45312-3.454294 31.675733 31.675733 0 0 1 19.551573 14.936747 31.812267 31.812267 0 0 1-11.687253 43.526827L553.601707 551.048533v1.26976-0.027306z" fill="#d4237a" p-id="2739"></path></svg>