<svg t="1649041845899" class="icon" viewBox="0 0 1024 1024" version="1.1"
     xmlns="http://www.w3.org/2000/svg" p-id="1338" width="1200" height="500"
>
    <defs>
        <style type="text/css">@font-face { font-family: feedback-iconfont; src: url("//at.alicdn.com/t/font_1031158_u69w8yhxdu.woff2?t=1630033759944") format("woff2"), url("//at.alicdn.com/t/font_1031158_u69w8yhxdu.woff?t=1630033759944") format("woff"), url("//at.alicdn.com/t/font_1031158_u69w8yhxdu.ttf?t=1630033759944") format("truetype"); }
        </style>
    </defs>
    <path d="M440.32 552.96c-30.72 0-51.2-20.48-76.8-30.72-76.8-40.96-143.36-92.16-204.8-153.6-20.48-25.6-46.08-46.08-61.44-76.8 20.48-10.24 46.08-5.12 66.56-10.24 5.12 0 10.24 5.12 10.24 5.12 81.92 102.4 174.08 184.32 266.24 266.24z" fill="#00A7EB" opacity=".29" p-id="1339">
        <animateMotion path="M -500,0 c100,60 100,-50 200,0 c100,50 100,0 300,0" begin="0.5s" dur="1.5s" />

    </path>
    <path d="M936.96 353.28h-30.72c-40.96 0-81.92-5.12-117.76-35.84-40.96-35.84-92.16-25.6-128 5.12-15.36 15.36-30.72 30.72-40.96 46.08-10.24 5.12-15.36-10.24-20.48-15.36-30.72-35.84-66.56-76.8-102.4-112.64-40.96-35.84-92.16-66.56-143.36-81.92-51.2-10.24-102.4-25.6-148.48-40.96-5.12 0-10.24-5.12-20.48 0l30.72 76.8c0 5.12 0 10.24 5.12 10.24 5.12 25.6 15.36 46.08 25.6 66.56 10.24 25.6 25.6 56.32 40.96 81.92 40.96 71.68 92.16 138.24 148.48 199.68l5.12 5.12c15.36 5.12 10.24 15.36 0 25.6-71.68 102.4-133.12 209.92-184.32 332.8-15.36 25.6-25.6 56.32-35.84 87.04 10.24-10.24 15.36-20.48 20.48-30.72 71.68-117.76 143.36-235.52 271.36-296.96 35.84-15.36 66.56-30.72 102.4-51.2 30.72-15.36 61.44-35.84 81.92-61.44 25.6-20.48 35.84-51.2 46.08-81.92 10.24-35.84 30.72-66.56 61.44-87.04 51.2-25.6 107.52-25.6 163.84-30.72 10.24 0 25.6 5.12 35.84-5.12-25.6-5.12-46.08-5.12-66.56-5.12z" fill="#00A7EB" p-id="1340">

        <animateMotion path="M -500,0 c100,60 100,-50 200,0 c100,50 100,0 300,0" begin="0.5s" dur="1.5s" />
    </path>
    <path d="M322.56 399.36c-25.6-40.96-51.2-87.04-76.8-128-5.12-20.48-15.36-40.96-25.6-66.56 0 0-5.12-5.12-5.12-10.24-25.6 0-51.2-5.12-76.8-5.12-5.12 0-10.24-5.12-15.36 0-5.12 5.12 0 10.24 0 15.36 15.36 25.6 30.72 51.2 40.96 76.8l10.24 10.24c51.2 66.56 112.64 122.88 174.08 184.32 30.72 25.6 61.44 56.32 92.16 76.8-40.96-51.2-81.92-97.28-117.76-153.6z" fill="#00A7EB" opacity=".54" p-id="1341">
        <animateMotion path="M -500,0 c100,60 100,-50 200,0 c100,50 100,0 300,0" begin="0.5s" dur="1.5s" />

    </path>

    <defs>
        <clipPath id="clipPath5">
            <text x="-250" y="50" style="font-size: 100px;" text-anchor="middle" font-family="Verdana">
                Dinky
            </text>
        </clipPath>
    </defs>

</svg>