<svg t="1649673904771" class="icon" viewBox="0 0 1024 1024" version="1.1" xmlns="http://www.w3.org/2000/svg" p-id="1656" width="200" height="200"><path d="M512 1024c-282.624 0-512-229.376-512-512s229.376-512 512-512 512 229.376 512 512-229.376 512-512 512z m0-1003.52c-271.36 0-491.52 220.16-491.52 491.52s220.16 491.52 491.52 491.52 491.52-220.16 491.52-491.52-220.16-491.52-491.52-491.52z" fill="#319d37" p-id="1657"></path><path d="M737.28 437.248c-24.576-56.32-66.56-101.376-121.856-126.976l12.288-31.744-31.744-12.288-12.288 31.744c-57.344-18.432-118.784-15.36-175.104 8.192-61.44 26.624-109.568 74.752-134.144 136.192l-8.192 19.456 217.088 87.04-57.344 143.36v1.024c-2.048 6.144-10.24 22.528-22.528 27.648-6.144 3.072-14.336 3.072-23.552 0-9.216-3.072-14.336-8.192-17.408-14.336-5.12-11.264 0-27.648 2.048-32.768l-30.72-13.312c-1.024 3.072-13.312 32.768-2.048 59.392 6.144 15.36 19.456 26.624 36.864 32.768 8.192 3.072 16.384 4.096 23.552 4.096 9.216 0 17.408-2.048 25.6-6.144 26.624-12.288 37.888-41.984 39.936-47.104l57.344-143.36 217.088 86.016 8.192-19.456c24.576-60.416 23.552-128-3.072-189.44z m-29.696 155.648l-192.512-76.8-192.512-76.8c49.152-93.184 161.792-136.192 262.144-96.256 51.2 20.48 92.16 59.392 113.664 110.592 18.432 45.056 21.504 93.184 9.216 139.264z" fill="#319d37" p-id="1658"></path></svg>