<svg t="1649673828968" class="icon" viewBox="0 0 1229 1024" version="1.1" xmlns="http://www.w3.org/2000/svg" p-id="2125" width="200" height="200"><path d="M500.776647 421.358324h-215.642807v125.194162h27.575806v-97.618356H496.364518l-11.581839-11.581838 15.993968-15.993968zM918.825874 328.427856h-27.575807v92.930468h-187.791242l15.993968 15.993968-11.581839 11.581838h210.95492v-120.506274z" fill="#d4237a" p-id="2126"></path><path d="M1229.329455 916.344051H0V0h1229.329455zM27.575807 888.768245h1174.177842V27.575807H27.575807z" fill="#d4237a" p-id="2127"></path><path d="M600.876824 905.589487h27.575807v100.927452h-27.575807z" fill="#d4237a" p-id="2128"></path><path d="M309.814186 1020.470297l0.165455-27.575807 609.701083 3.529703-0.165455 27.575807zM298.921743 761.643777l-117.197178-117.472936 117.197178-117.197178 117.197178 117.197178zM220.606452 644.170841l78.315291 79.142565 78.31529-78.315291-78.31529-78.315291zM905.589487 348.006679l-117.197178-117.472936 117.197178-117.197178 117.197178 117.197178zM827.274196 230.533743l78.315291 79.142564 78.31529-78.31529-78.31529-78.315291zM703.458825 421.358324l-101.20321-101.20321-101.20321 101.20321-15.993968 15.993968 11.581839 11.581838 105.615339 105.891098 105.615339-105.891098 11.581839-11.581838z m-101.20321 94.309258l-66.733452-66.733452-11.581839-11.581838 15.993968-15.993968 62.321323-62.321323 62.321323 62.321323 15.993967 15.993968-11.581838 11.581838z" fill="#d4237a" p-id="2129"></path></svg>